<svg width="30" height="30" viewBox="0 0 30 30" fill="none" xmlns="http://www.w3.org/2000/svg">
<path fill-rule="evenodd" clip-rule="evenodd" d="M20.3333 10.9998C20.3333 12.4143 19.7714 13.7709 18.7712 14.7711C17.771 15.7713 16.4144 16.3332 15 16.3332C13.5855 16.3332 12.2289 15.7713 11.2287 14.7711C10.2285 13.7709 9.66663 12.4143 9.66663 10.9998C9.66663 9.58535 10.2285 8.22879 11.2287 7.2286C12.2289 6.22841 13.5855 5.6665 15 5.6665C16.4144 5.6665 17.771 6.22841 18.7712 7.2286C19.7714 8.22879 20.3333 9.58535 20.3333 10.9998ZM17.6666 10.9998C17.6666 11.7071 17.3857 12.3854 16.8856 12.8855C16.3855 13.3856 15.7072 13.6665 15 13.6665C14.2927 13.6665 13.6144 13.3856 13.1143 12.8855C12.6142 12.3854 12.3333 11.7071 12.3333 10.9998C12.3333 10.2926 12.6142 9.61432 13.1143 9.11422C13.6144 8.61412 14.2927 8.33317 15 8.33317C15.7072 8.33317 16.3855 8.61412 16.8856 9.11422C17.3857 9.61432 17.6666 10.2926 17.6666 10.9998Z" fill="white"/>
<path fill-rule="evenodd" clip-rule="evenodd" d="M15 0.333252C6.89998 0.333252 0.333313 6.89992 0.333313 14.9999C0.333313 23.0999 6.89998 29.6666 15 29.6666C23.1 29.6666 29.6666 23.0999 29.6666 14.9999C29.6666 6.89992 23.1 0.333252 15 0.333252ZM2.99998 14.9999C2.99998 17.7866 3.95065 20.3519 5.54398 22.3893C6.66295 20.9198 8.10651 19.7289 9.76189 18.9097C11.4173 18.0904 13.2396 17.665 15.0866 17.6666C16.9097 17.6649 18.7092 18.0793 20.3479 18.8783C21.9866 19.6773 23.4213 20.8398 24.5426 22.2773C25.6979 20.7621 26.4758 18.9935 26.8118 17.118C27.1479 15.2425 27.0326 13.314 26.4753 11.4919C25.9181 9.66983 24.9349 8.00665 23.6073 6.63997C22.2796 5.27329 20.6456 4.2424 18.8405 3.6326C17.0353 3.0228 15.1109 2.85161 13.2265 3.13322C11.342 3.41482 9.5517 4.14111 8.00367 5.25199C6.45564 6.36287 5.19439 7.82641 4.32429 9.52151C3.45418 11.2166 3.00022 13.0945 2.99998 14.9999ZM15 26.9999C12.2452 27.0041 9.57367 26.0564 7.43731 24.3173C8.29722 23.0862 9.44176 22.0811 10.7736 21.3875C12.1054 20.6939 13.585 20.3322 15.0866 20.3333C16.5695 20.3321 18.0313 20.6847 19.3505 21.3618C20.6698 22.039 21.8085 23.0211 22.672 24.2266C20.519 26.0222 17.8034 27.0039 15 26.9999Z" fill="white"/>
</svg>
