<svg width="22" height="22" viewBox="0 0 22 22" fill="none" xmlns="http://www.w3.org/2000/svg">
<path d="M15.1892 20.1667C15.4326 20.1681 15.6739 20.121 15.899 20.0281C16.1241 19.9353 16.3284 19.7985 16.5 19.6258L18.9842 17.1417C19.1549 16.9699 19.2507 16.7376 19.2507 16.4954C19.2507 16.2533 19.1549 16.0209 18.9842 15.8492L15.3175 12.1825C15.1458 12.0118 14.9134 11.9159 14.6713 11.9159C14.4291 11.9159 14.1967 12.0118 14.025 12.1825L12.5583 13.64C11.5429 13.3693 10.6025 12.8708 9.80833 12.1825C9.12186 11.3871 8.62366 10.4471 8.35083 9.43251L9.80833 7.96584C9.97906 7.79409 10.0749 7.56176 10.0749 7.31959C10.0749 7.07742 9.97906 6.84509 9.80833 6.67334L6.14167 3.00667C5.96992 2.83594 5.73759 2.74011 5.49542 2.74011C5.25325 2.74011 5.02091 2.83594 4.84917 3.00667L2.37417 5.50001C2.20149 5.67165 2.06474 5.87596 1.97188 6.10102C1.87903 6.32608 1.83193 6.56738 1.83333 6.81084C1.91649 10.3329 3.3239 13.6943 5.775 16.225C8.30566 18.6761 11.6671 20.0835 15.1892 20.1667ZM5.5 4.95917L7.87417 7.33334L6.69167 8.51584C6.57967 8.62075 6.4958 8.7521 6.44775 8.89784C6.39971 9.04359 6.38902 9.19906 6.41667 9.35001C6.75929 10.8812 7.48468 12.3004 8.525 13.475C9.69866 14.5167 11.1183 15.2422 12.65 15.5833C12.7987 15.6144 12.9527 15.6081 13.0983 15.5649C13.2439 15.5217 13.3765 15.443 13.4842 15.3358L14.6667 14.1258L17.0408 16.5L15.2075 18.3333C12.1676 18.2551 9.26705 17.0419 7.07667 14.9325C4.96184 12.7412 3.74514 9.83686 3.66667 6.79251L5.5 4.95917ZM18.3333 10.0833H20.1667C20.1904 8.99342 19.9933 7.90998 19.5871 6.8983C19.1809 5.88662 18.5741 4.96765 17.8032 4.19678C17.0324 3.42591 16.1134 2.81909 15.1017 2.41291C14.09 2.00672 13.0066 1.80957 11.9167 1.83334V3.66667C12.7672 3.63725 13.6148 3.7831 14.4066 4.09516C15.1984 4.40721 15.9176 4.8788 16.5194 5.48061C17.1212 6.08242 17.5928 6.80159 17.9049 7.5934C18.2169 8.38522 18.3628 9.23276 18.3333 10.0833Z" fill="white"/>
<path d="M11.9167 7.33333C13.8417 7.33333 14.6667 8.15833 14.6667 10.0833H16.5C16.5 7.13167 14.8683 5.5 11.9167 5.5V7.33333Z" fill="white"/>
</svg>
